<mxfile host="65bd71144e" scale="2" border="0">
    <diagram id="OZ6w2GOdudwYGQoKYb9u" name="Page-1">
        <mxGraphModel dx="1320" dy="856" grid="1" gridSize="10" guides="1" tooltips="1" connect="1" arrows="1" fold="1" page="1" pageScale="1" pageWidth="850" pageHeight="1100" math="0" shadow="0">
            <root>
                <mxCell id="0"/>
                <mxCell id="1" parent="0"/>
                <mxCell id="21" value="" style="rounded=0;whiteSpace=wrap;html=1;strokeColor=#0077FF;fillColor=none;dashed=1;" parent="1" vertex="1">
                    <mxGeometry x="357.5" y="290" width="252.5" height="230" as="geometry"/>
                </mxCell>
                <mxCell id="4" value="&lt;b&gt;Vector Store&lt;/b&gt;" style="rounded=1;whiteSpace=wrap;html=1;fillColor=#f5f3ff;strokeColor=#0077FF;" parent="1" vertex="1">
                    <mxGeometry x="423.75" y="330" width="120" height="60" as="geometry"/>
                </mxCell>
                <mxCell id="10" value="&lt;b&gt;LLM Adapter&lt;/b&gt;" style="rounded=1;whiteSpace=wrap;html=1;fillColor=#f0f9ff;strokeColor=#0077FF;" parent="1" vertex="1">
                    <mxGeometry x="180" y="175" width="120" height="60" as="geometry"/>
                </mxCell>
                <mxCell id="11" value="&lt;b&gt;LLM&lt;/b&gt;" style="rounded=1;whiteSpace=wrap;html=1;fillColor=#f8fafb;strokeColor=#0077FF;" parent="1" vertex="1">
                    <mxGeometry x="423.75" y="560" width="120" height="60" as="geometry"/>
                </mxCell>
                <mxCell id="16" value="&lt;b&gt;Cache Storage&lt;/b&gt;" style="rounded=1;whiteSpace=wrap;html=1;fillColor=#f5f3ff;strokeColor=#0077FF;" parent="1" vertex="1">
                    <mxGeometry x="423.75" y="420" width="120" height="60" as="geometry"/>
                </mxCell>
                <mxCell id="22" value="&lt;b&gt;Similarity&lt;br&gt;Evaluator&lt;br&gt;&lt;/b&gt;" style="rounded=1;whiteSpace=wrap;html=1;fillColor=#ecfdf3;strokeColor=#0077FF;" parent="1" vertex="1">
                    <mxGeometry x="680" y="297.5" width="90" height="195" as="geometry"/>
                </mxCell>
                <mxCell id="23" value="&lt;b&gt;Embedding&lt;br&gt;Generator&lt;br&gt;&lt;/b&gt;" style="rounded=1;whiteSpace=wrap;html=1;fillColor=#fffbec;strokeColor=#0077FF;" parent="1" vertex="1">
                    <mxGeometry x="422.5" y="175" width="120" height="60" as="geometry"/>
                </mxCell>
                <mxCell id="34" value="&lt;b&gt;Cache&lt;br&gt;Hit&lt;/b&gt;" style="rhombus;whiteSpace=wrap;html=1;" vertex="1" parent="1">
                    <mxGeometry x="840" y="365" width="90" height="60" as="geometry"/>
                </mxCell>
                <mxCell id="35" value="" style="endArrow=classic;html=1;strokeColor=#0077FF;" edge="1" parent="1">
                    <mxGeometry width="50" height="50" relative="1" as="geometry">
                        <mxPoint x="90" y="195" as="sourcePoint"/>
                        <mxPoint x="180" y="195" as="targetPoint"/>
                    </mxGeometry>
                </mxCell>
                <mxCell id="37" value="Query" style="text;html=1;strokeColor=none;fillColor=none;align=center;verticalAlign=middle;whiteSpace=wrap;rounded=0;fontStyle=1" vertex="1" parent="1">
                    <mxGeometry x="110" y="165" width="60" height="30" as="geometry"/>
                </mxCell>
                <mxCell id="39" value="Response" style="text;html=1;strokeColor=none;fillColor=none;align=center;verticalAlign=middle;whiteSpace=wrap;rounded=0;fontStyle=1" vertex="1" parent="1">
                    <mxGeometry x="110" y="215" width="60" height="30" as="geometry"/>
                </mxCell>
                <mxCell id="40" value="" style="endArrow=none;html=1;startArrow=classic;startFill=1;endFill=0;strokeColor=#0077FF;" edge="1" parent="1">
                    <mxGeometry width="50" height="50" relative="1" as="geometry">
                        <mxPoint x="90" y="215" as="sourcePoint"/>
                        <mxPoint x="180" y="215" as="targetPoint"/>
                    </mxGeometry>
                </mxCell>
                <mxCell id="41" value="&lt;b&gt;Cache Manager&lt;/b&gt;" style="text;html=1;strokeColor=none;fillColor=none;align=center;verticalAlign=middle;whiteSpace=wrap;rounded=0;fontSize=8;" vertex="1" parent="1">
                    <mxGeometry x="357.5" y="290" width="72.5" height="30" as="geometry"/>
                </mxCell>
                <mxCell id="42" value="" style="endArrow=classic;html=1;strokeColor=#0077FF;fontSize=8;exitX=1;exitY=0.5;exitDx=0;exitDy=0;entryX=0;entryY=0.5;entryDx=0;entryDy=0;" edge="1" parent="1" source="10" target="23">
                    <mxGeometry width="50" height="50" relative="1" as="geometry">
                        <mxPoint x="420" y="390" as="sourcePoint"/>
                        <mxPoint x="470" y="340" as="targetPoint"/>
                    </mxGeometry>
                </mxCell>
                <mxCell id="43" value="" style="edgeStyle=segmentEdgeStyle;endArrow=classic;html=1;curved=0;rounded=0;endSize=8;startSize=8;strokeColor=#0077FF;fontSize=8;exitX=1;exitY=0.5;exitDx=0;exitDy=0;entryX=0.5;entryY=0;entryDx=0;entryDy=0;" edge="1" parent="1" source="23" target="22">
                    <mxGeometry width="50" height="50" relative="1" as="geometry">
                        <mxPoint x="550" y="490" as="sourcePoint"/>
                        <mxPoint x="600" y="440" as="targetPoint"/>
                    </mxGeometry>
                </mxCell>
                <mxCell id="44" value="" style="endArrow=classic;html=1;strokeColor=#0077FF;fontSize=8;entryX=1;entryY=0.5;entryDx=0;entryDy=0;exitX=0.005;exitY=0.321;exitDx=0;exitDy=0;exitPerimeter=0;" edge="1" parent="1" source="22" target="4">
                    <mxGeometry width="50" height="50" relative="1" as="geometry">
                        <mxPoint x="550" y="440" as="sourcePoint"/>
                        <mxPoint x="600" y="390" as="targetPoint"/>
                    </mxGeometry>
                </mxCell>
                <mxCell id="45" value="" style="endArrow=classic;html=1;strokeColor=#0077FF;fontSize=8;entryX=1;entryY=0.5;entryDx=0;entryDy=0;exitX=0.008;exitY=0.781;exitDx=0;exitDy=0;exitPerimeter=0;" edge="1" parent="1" source="22" target="16">
                    <mxGeometry width="50" height="50" relative="1" as="geometry">
                        <mxPoint x="680.45" y="449.89500000000004" as="sourcePoint"/>
                        <mxPoint x="543.75" y="449.8" as="targetPoint"/>
                    </mxGeometry>
                </mxCell>
                <mxCell id="46" value="" style="endArrow=classic;html=1;strokeColor=#0077FF;fontSize=8;entryX=0;entryY=0.5;entryDx=0;entryDy=0;exitX=1;exitY=0.5;exitDx=0;exitDy=0;" edge="1" parent="1" source="22" target="34">
                    <mxGeometry width="50" height="50" relative="1" as="geometry">
                        <mxPoint x="690.72" y="459.7950000000001" as="sourcePoint"/>
                        <mxPoint x="553.75" y="460" as="targetPoint"/>
                    </mxGeometry>
                </mxCell>
                <mxCell id="47" value="" style="endArrow=classic;html=1;strokeColor=#0077FF;fontSize=8;entryX=0.5;entryY=1;entryDx=0;entryDy=0;exitX=0.5;exitY=0;exitDx=0;exitDy=0;" edge="1" parent="1" source="11" target="16">
                    <mxGeometry width="50" height="50" relative="1" as="geometry">
                        <mxPoint x="780.0000000000002" y="405" as="sourcePoint"/>
                        <mxPoint x="850.0000000000002" y="405" as="targetPoint"/>
                    </mxGeometry>
                </mxCell>
                <mxCell id="49" value="" style="edgeStyle=segmentEdgeStyle;endArrow=none;html=1;curved=0;rounded=0;endSize=8;startSize=8;strokeColor=#0077FF;fontSize=8;exitX=1;exitY=0.5;exitDx=0;exitDy=0;startArrow=classic;startFill=1;endFill=0;" edge="1" parent="1" source="11" target="34">
                    <mxGeometry width="50" height="50" relative="1" as="geometry">
                        <mxPoint x="790" y="490" as="sourcePoint"/>
                        <mxPoint x="840" y="440" as="targetPoint"/>
                    </mxGeometry>
                </mxCell>
                <mxCell id="50" value="" style="edgeStyle=segmentEdgeStyle;endArrow=classic;html=1;curved=0;rounded=0;endSize=8;startSize=8;strokeColor=#0077FF;fontSize=8;entryX=0.5;entryY=1;entryDx=0;entryDy=0;exitX=0.004;exitY=0.714;exitDx=0;exitDy=0;exitPerimeter=0;" edge="1" parent="1" source="11" target="10">
                    <mxGeometry width="50" height="50" relative="1" as="geometry">
                        <mxPoint x="420" y="600" as="sourcePoint"/>
                        <mxPoint x="220" y="390" as="targetPoint"/>
                    </mxGeometry>
                </mxCell>
                <mxCell id="51" value="" style="edgeStyle=elbowEdgeStyle;elbow=horizontal;endArrow=classic;html=1;curved=0;rounded=0;endSize=8;startSize=8;strokeColor=#0077FF;fontSize=8;entryX=0;entryY=0.5;entryDx=0;entryDy=0;exitX=-0.006;exitY=0.33;exitDx=0;exitDy=0;exitPerimeter=0;" edge="1" parent="1" source="11" target="4">
                    <mxGeometry width="50" height="50" relative="1" as="geometry">
                        <mxPoint x="250" y="560" as="sourcePoint"/>
                        <mxPoint x="470" y="450" as="targetPoint"/>
                        <Array as="points">
                            <mxPoint x="300" y="540"/>
                        </Array>
                    </mxGeometry>
                </mxCell>
                <mxCell id="52" value="" style="edgeStyle=elbowEdgeStyle;elbow=vertical;endArrow=classic;html=1;curved=0;rounded=0;endSize=8;startSize=8;strokeColor=#0077FF;fontSize=8;exitX=0.5;exitY=0;exitDx=0;exitDy=0;entryX=0.5;entryY=0;entryDx=0;entryDy=0;" edge="1" parent="1" source="34" target="10">
                    <mxGeometry width="50" height="50" relative="1" as="geometry">
                        <mxPoint x="630" y="140" as="sourcePoint"/>
                        <mxPoint x="680" y="90" as="targetPoint"/>
                        <Array as="points">
                            <mxPoint x="560" y="120"/>
                        </Array>
                    </mxGeometry>
                </mxCell>
                <mxCell id="53" value="Yes" style="text;html=1;strokeColor=none;fillColor=none;align=center;verticalAlign=middle;whiteSpace=wrap;rounded=0;fontStyle=1" vertex="1" parent="1">
                    <mxGeometry x="890" y="297.5" width="30" height="30" as="geometry"/>
                </mxCell>
                <mxCell id="54" value="No" style="text;html=1;strokeColor=none;fillColor=none;align=center;verticalAlign=middle;whiteSpace=wrap;rounded=0;fontStyle=1" vertex="1" parent="1">
                    <mxGeometry x="890" y="462.5" width="30" height="30" as="geometry"/>
                </mxCell>
            </root>
        </mxGraphModel>
    </diagram>
</mxfile>